HIERARCHY
ROOT Hips
{
	OFFSET 0.000000 0.000000 0.000000
	CHANNELS 6 Xposition Yposition Zposition Zrotation Yrotation Xrotation 
	JOINT LHipJoint
	{
		OFFSET 0.000000 0.000000 0.000000
		CHANNELS 3 Zrotation Yrotation Xrotation
		JOINT LeftUpLeg
		{
			OFFSET 1.363060 -1.794630 0.839290
			CHANNELS 3 Zrotation Yrotation Xrotation
			JOINT LeftLeg
			{
				OFFSET 2.448110 -6.726130 0.000000
				CHANNELS 3 Zrotation Yrotation Xrotation
				JOINT LeftFoot
				{
					OFFSET 2.562200 -7.039590 0.000000
					CHANNELS 3 Zrotation Yrotation Xrotation
					JOINT LeftToeBase
					{
						OFFSET 0.157640 -0.433110 2.322550
						CHANNELS 3 Zrotation Yrotation Xrotation
						End Site
						{
							OFFSET 0.000000 0.000000 0.000000
						}
					}
				}
			}
		}
	}
	JOINT RHipJoint
	{
		OFFSET 0.000000 0.000000 0.000000
		CHANNELS 3 Zrotation Yrotation Xrotation
		JOINT RightUpLeg
		{
			OFFSET -1.305520 -1.794630 0.839290
			CHANNELS 3 Zrotation Yrotation Xrotation
			JOINT RightLeg
			{
				OFFSET -2.542530 -6.985550 0.000000
				CHANNELS 3 Zrotation Yrotation Xrotation
				JOINT RightFoot
				{
					OFFSET -2.568260 -7.056230 0.000000
					CHANNELS 3 Zrotation Yrotation Xrotation
					JOINT RightToeBase
					{
						OFFSET -0.164730 -0.452590 2.363150
						CHANNELS 3 Zrotation Yrotation Xrotation
						End Site
						{
							OFFSET 0.000000 0.000000 0.000000
						}
					}
				}
			}
		}
	}
	JOINT LowerBack
	{
		OFFSET 0.000000 0.000000 0.000000
		CHANNELS 3 Zrotation Yrotation Xrotation
		JOINT Spine
		{
			OFFSET 0.028270 2.035590 -0.193380
			CHANNELS 3 Zrotation Yrotation Xrotation
			JOINT Spine1
			{
				OFFSET 0.056720 2.048850 -0.042750
				CHANNELS 3 Zrotation Yrotation Xrotation
				JOINT Neck
				{
					OFFSET 0.000000 0.000000 0.000000
					CHANNELS 3 Zrotation Yrotation Xrotation
					JOINT Neck1
					{
						OFFSET -0.054170 1.746240 0.172020
						CHANNELS 3 Zrotation Yrotation Xrotation
						JOINT Head
						{
							OFFSET 0.104070 1.761360 -0.123970
							CHANNELS 3 Zrotation Yrotation Xrotation
							End Site
							{
								OFFSET 0.000000 0.000000 0.000000
							}
						}
					}
				}
				JOINT LeftShoulder
				{
					OFFSET 0.000000 0.000000 0.000000
					CHANNELS 3 Zrotation Yrotation Xrotation
					JOINT LeftArm
					{
						OFFSET 3.362410 1.200890 -0.311210
						CHANNELS 3 Zrotation Yrotation Xrotation
						JOINT LeftForeArm
						{
							OFFSET 4.983000 -0.000000 -0.000000
							CHANNELS 3 Zrotation Yrotation Xrotation
							JOINT LeftHand
							{
								OFFSET 3.483560 -0.000000 -0.000000
								CHANNELS 3 Zrotation Yrotation Xrotation
								JOINT LeftFingerBase
								{
									OFFSET 0.000000 0.000000 0.000000
									CHANNELS 3 Zrotation Yrotation Xrotation
									JOINT LeftHandIndex1
									{
										OFFSET 0.715260 -0.000000 -0.000000
										CHANNELS 3 Zrotation Yrotation Xrotation
										End Site
										{
											OFFSET 0.000000 0.000000 0.000000
										}
									}
								}
								JOINT LThumb
								{
									OFFSET 0.000000 0.000000 0.000000
									CHANNELS 3 Zrotation Yrotation Xrotation
									End Site
									{
										OFFSET 0.000000 0.000000 0.000000
									}
								}
							}
						}
					}
				}
				JOINT RightShoulder
				{
					OFFSET 0.000000 0.000000 0.000000
					CHANNELS 3 Zrotation Yrotation Xrotation
					JOINT RightArm
					{
						OFFSET -3.136600 1.374050 -0.404650
						CHANNELS 3 Zrotation Yrotation Xrotation
						JOINT RightForeArm
						{
							OFFSET -5.241900 -0.000000 -0.000000
							CHANNELS 3 Zrotation Yrotation Xrotation
							JOINT RightHand
							{
								OFFSET -3.444170 -0.000000 -0.000000
								CHANNELS 3 Zrotation Yrotation Xrotation
								JOINT RightFingerBase
								{
									OFFSET 0.000000 0.000000 0.000000
									CHANNELS 3 Zrotation Yrotation Xrotation
									JOINT RightHandIndex1
									{
										OFFSET -0.622530 -0.000000 -0.000000
										CHANNELS 3 Zrotation Yrotation Xrotation
										End Site
										{
											OFFSET 0.000000 0.000000 0.000000
										}
									}
								}
								JOINT RThumb
								{
									OFFSET 0.000000 0.000000 0.000000
									CHANNELS 3 Zrotation Yrotation Xrotation
									End Site
									{
										OFFSET 0.000000 0.000000 0.000000
									}
								}
							}
						}
					}
				}
			}
		}
	}
}
MOTION
Frames: 7
Frame Time: 0.008333
21.042434 21.746550 0.489173 -1.460083 0.558564 6.398765 -15.460327 2.707443 1.609987 4.281817 2.135587 -28.540660 -21.554565 -28.331720 50.285456 -3.314420 57.748844 29.929371 -0.526377 1.844301 -4.503690 14.182578 -1.635908 4.292134 -4.913130 5.331403 -27.358596 45.429622 29.323963 71.612944 29.226872 -65.961284 -17.781071 0.208121 0.774304 -2.059117 0.806382 -0.679781 4.872276 0.833448 -0.583692 -4.132459 -1.764915 -0.643171 0.078198 -2.229221 -0.437413 -6.471948 1.491798 -16.518376 25.760214 -7.287409 -15.212878 1.590744 -6.075009 -7.089156 1.903779 -73.863485 -6.222880 38.955063 4.825148 2.546605 -13.406104 6.920467 -9.551616 -14.652142 -1.699324 4.109736 -0.000000 0.000000 0.000000 0.000000 0.000000 0.000000 0.000000 6.498559 6.886956 4.851411 76.060557 8.981825 42.069383 -5.582745 7.845542 -7.281554 -10.438284 6.178729 -7.680555 3.626316 -2.047601 -0.000000 0.000000 0.000000 0.000000 0.000000 0.000000 0.000000
21.034213 21.854500 0.501149 -1.491135 0.864159 6.534673 -15.373595 2.602675 1.427726 4.174049 2.043518 -29.219418 -21.614282 -28.608521 50.935597 -2.886302 57.062128 30.685741 -0.589721 2.126633 -5.018992 14.139128 -1.558385 4.160419 -4.919941 5.569426 -28.082607 46.362154 27.884441 73.179503 26.954821 -65.182331 -15.684144 0.165128 0.610517 -1.781144 0.798437 -0.744486 5.463749 0.839796 -0.651315 -4.125712 -1.762943 -0.714487 0.337942 -2.198246 -0.395178 -6.725742 1.564570 -16.575582 25.695854 -7.079145 -15.312003 1.397979 -6.166904 -7.001770 2.087003 -73.644301 -6.803640 38.949301 4.936052 2.160293 -13.224835 6.755299 -9.504543 -14.429364 -1.663433 4.046590 -0.000000 0.000000 0.000000 0.000000 0.000000 0.000000 0.000000 6.561733 6.685272 5.087644 76.062802 9.747852 42.532088 -5.639926 7.833194 -7.388409 -9.860435 5.902936 -7.652523 3.413842 -1.928792 -0.000000 0.000000 0.000000 0.000000 0.000000 0.000000 0.000000
21.028739 21.953003 0.519668 -1.528412 1.155894 6.671897 -15.286400 2.478556 1.328110 4.066160 2.039764 -29.870404 -22.244710 -29.576170 51.923991 -3.409508 57.148164 30.218061 -0.637744 1.862456 -5.181133 14.095605 -1.480353 4.095718 -4.959478 5.837075 -28.697674 47.704985 27.071220 74.930130 25.520596 -64.527708 -14.161543 0.183464 0.683380 -1.994478 0.828607 -0.761945 5.949130 0.840187 -0.671912 -4.117903 -1.860140 -0.725003 0.293313 -2.106425 -0.338645 -6.652106 1.710551 -16.674296 25.865054 -7.133615 -15.366943 0.993444 -5.860919 -7.265626 2.151660 -73.857959 -6.834139 39.242970 5.154630 1.740265 -13.215344 6.979012 -9.635460 -14.460792 -1.750627 4.070623 -0.000000 0.000000 0.000000 0.000000 0.000000 0.000000 0.000000 6.065217 6.888815 4.878076 76.638502 9.625403 42.351756 -5.631009 7.759896 -7.658422 -10.436204 5.855071 -7.984301 3.617398 -1.953958 -0.000000 0.000000 0.000000 0.000000 0.000000 0.000000 0.000000
21.023433 22.043721 0.540873 -1.528995 1.429894 6.764874 -15.233480 2.403391 1.263256 4.066753 1.887309 -30.262357 -22.306775 -30.306797 52.032854 -4.192996 56.965701 29.243850 -0.684539 1.959322 -5.505990 14.062502 -1.407408 4.026701 -4.828718 5.759612 -29.403226 49.601817 26.571927 77.464788 24.677531 -64.014468 -13.356552 0.296397 1.063059 -1.474641 0.877853 -0.835115 6.424441 0.846715 -0.755285 -4.109547 -1.893941 -0.799813 0.334728 -2.085922 -0.339581 -6.659359 1.686259 -16.689695 26.137821 -7.015254 -15.399682 0.428028 -5.646038 -7.451671 2.157633 -74.128118 -6.749467 39.526241 5.302835 1.333835 -13.193554 6.791830 -9.644386 -14.395999 -1.702323 4.025172 -0.000000 0.000000 0.000000 0.000000 0.000000 0.000000 0.000000 5.792310 7.003275 4.869610 77.118829 9.635968 43.769677 -6.195724 7.602991 -8.745510 -9.898808 5.723447 -8.894069 3.367252 -1.933874 -0.000000 0.000000 0.000000 0.000000 0.000000 0.000000 0.000000
21.023095 22.129319 0.564337 -1.479285 1.615540 6.855706 -15.200226 2.357126 1.220919 4.180085 1.618737 -30.510476 -21.436549 -30.372320 50.967764 -5.353461 56.262868 27.747900 -0.747303 1.850164 -5.833814 14.056279 -1.419121 3.944937 -4.485144 5.263408 -30.044916 51.097035 26.601549 79.907954 23.670330 -63.360142 -12.902713 0.207685 0.793590 -2.586926 0.904397 -0.889236 6.867639 0.850216 -0.816192 -4.100576 -1.962043 -0.855546 0.411077 -2.078014 -0.354883 -6.707974 1.647890 -16.717634 26.414619 -6.960625 -15.430516 0.153639 -5.483207 -7.564478 2.242727 -74.382204 -6.835781 39.912824 5.502349 0.989141 -13.193377 7.110114 -9.756064 -14.446363 -1.832382 4.049943 -0.000000 0.000000 0.000000 0.000000 0.000000 0.000000 0.000000 5.551404 7.078534 4.859211 77.414175 9.843498 44.763621 -6.414072 7.623662 -9.618043 -10.300060 5.467622 -9.715131 3.498503 -1.884398 -0.000000 0.000000 0.000000 0.000000 0.000000 0.000000 0.000000
21.022446 22.207218 0.590209 -1.420957 1.725281 7.199427 -15.082358 2.144049 1.263730 4.361442 1.289466 -30.891732 -21.525273 -31.036776 50.509680 -7.103083 56.634488 25.036445 -0.731815 1.243331 -5.464130 13.965817 -1.268379 3.929352 -4.547322 5.363684 -30.657936 52.124433 26.508735 81.250820 24.066034 -62.599955 -14.265077 0.209607 0.797971 -2.521212 0.947212 -0.930368 7.045075 0.854748 -0.868065 -4.096377 -1.937906 -0.896405 0.331912 -2.121670 -0.339824 -6.609617 1.693581 -16.712295 26.751281 -7.143441 -15.371890 -0.711297 -5.095220 -7.775532 2.055291 -75.009902 -6.430592 40.207967 5.622119 0.616958 -13.008836 7.011569 -9.844978 -14.239212 -1.821468 4.040824 -0.000000 0.000000 0.000000 0.000000 0.000000 0.000000 0.000000 5.227195 7.225139 4.842813 77.688230 9.796030 44.977749 -6.433956 7.765845 -9.276313 -9.176648 5.418786 -9.223138 3.091426 -1.793256 0.000000 0.000000 0.000000 0.000000 0.000000 0.000000 0.000000
21.026072 22.282151 0.620235 -1.396423 1.863288 7.413290 -15.040604 2.095135 1.257848 4.510659 1.079566 -31.123657 -20.334108 -30.920001 48.777383 -7.463897 55.646912 23.471375 -0.756187 1.633030 -5.791940 13.893090 -1.216658 3.967538 -4.901557 5.840659 -30.940513 52.165865 26.340712 81.226909 24.779432 -61.667134 -16.057216 0.265852 1.018887 -2.847431 1.029100 -0.967146 7.272821 0.858828 -0.917790 -4.088011 -1.934727 -0.946653 0.468183 -2.133985 -0.326281 -6.741515 1.762081 -16.729760 27.230028 -7.302611 -15.323861 -1.625522 -5.008034 -7.743626 2.073125 -75.362103 -6.532382 40.761830 5.727264 0.404050 -12.938916 7.007990 -9.837621 -14.157693 -1.843936 4.012426 -0.000000 0.000000 0.000000 0.000000 0.000000 0.000000 0.000000 5.154894 7.124191 5.041830 77.676851 10.255639 45.942529 -6.817077 7.900008 -10.165452 -10.472866 5.365707 -10.154809 3.551423 -1.833452 0.000000 0.000000 0.000000 0.000000 0.000000 0.000000 0.000000
